<svg width="500" height="500" viewBox="0 0 500 500" xmlns="http://www.w3.org/2000/svg"><title>capnet_logo</title><g fill="none" fill-rule="evenodd"><path d="M0 0h500v500H0z"/><g fill="#F88223"><path d="M291.222 153.867l8.927-29.86c.09-.45.22-.884.387-1.3l.022-.073.006.003a7.502 7.502 0 1 1 13.666 6.173l.022.01-.142.222c-.18.335-.384.654-.61.956l-16.794 26.295c-.106.222-.24.428-.393.615l-.015.023h-.002a3 3 0 0 1-5.076-3.063zM213 215.138c7.212 9.637 18.638 15.862 31.5 15.862 21.815 0 39.5-17.91 39.5-40s-17.685-40-39.5-40-39.5 17.91-39.5 40v54h8v-29.862zM244.5 227c-17.397 0-31.5-16.342-31.5-36.5s14.103-36.5 31.5-36.5 31.5 16.342 31.5 36.5-14.103 36.5-31.5 36.5zM192 215.138C184.788 224.775 173.362 231 160.5 231c-21.815 0-39.5-17.91-39.5-40s17.685-40 39.5-40 39.5 17.91 39.5 40v54h-8v-29.862zM160.5 227c17.397 0 31.5-16.342 31.5-36.5S177.897 154 160.5 154 129 170.342 129 190.5s14.103 36.5 31.5 36.5zM64 230c-32.033 0-58-26.19-58-58.5S31.967 113 64 113c19.697 0 37.1 9.903 47.583 25.042 0 0 1.83 2.538-.98 4.245-2.81 1.708-4.58-.873-4.58-.873C97.12 126.122 81.623 116 64 116c-27.614 0-50 24.848-50 55.5S36.386 227 64 227c17.924 0 33.645-10.47 42.472-26.198 0 0 1.182-2.305 4.522-.068 2.316 1.552.528 4.313.528 4.313C101.032 220.137 83.658 230 64 230z"/></g><g fill="#FFF"><path d="M395 216v34h25v80h34v-80h26v-34h-85zM304 216v114h68v-34h-34v-7h48v-32h-48v-7h34v-34h-68zM178 330V208l82 65v-57h34l.003 128L213 279v51h-35z"/></g></g></svg>