<svg width="50" height="200" viewBox="0 0 50 200" xmlns="http://www.w3.org/2000/svg"><title>navigation</title><g fill="#FFF" fill-rule="evenodd"><path d="M24.844 170.122c.58 0 1.08-.214 1.504-.64a2.13 2.13 0 0 0 .635-1.555c0-.608-.21-1.127-.63-1.56a2.03 2.03 0 0 0-1.51-.646 2.05 2.05 0 0 0-1.514.648c-.425.432-.636.95-.636 1.56 0 .606.21 1.125.635 1.553.422.428.927.642 1.514.642zM25 155c-11.046 0-20 8.954-20 20s8.954 20 20 20 20-8.954 20-20-8.954-20-20-20zm0 38.57c-10.256 0-18.57-8.314-18.57-18.57s8.314-18.57 18.57-18.57 18.57 8.314 18.57 18.57-8.314 18.57-18.57 18.57zm2.547-10.47a1.026 1.026 0 0 1-.466-.44 1.452 1.452 0 0 1-.162-.713v-9.522l-.163-.18-5.32.31v.877c.216.024.456.08.72.168.265.088.463.18.593.276a1.513 1.513 0 0 1 .608 1.247v6.98c0 .296-.047.533-.14.713-.095.18-.258.32-.49.415a1.74 1.74 0 0 1-.467.12c-.18.024-.366.044-.554.06v.876h6.863v-.876a2.943 2.943 0 0 1-.545-.12 3.505 3.505 0 0 1-.478-.19zM43.57 112H6.43c-.79 0-1.43.647-1.43 1.444v23.112c0 .798.64 1.444 1.43 1.444h37.14c.79 0 1.43-.646 1.43-1.444v-23.112c0-.797-.64-1.444-1.43-1.444zm-1.553 1.444l-16.005 16.184c-.565.57-1.48.57-2.046 0L7.96 113.444h34.057zm-35.588.45l10.975 11.1-10.976 11.11v-22.21zm1.53 22.662l10.434-10.564 4.602 4.654a2.796 2.796 0 0 0 3.985 0l4.604-4.654 10.434 10.564H7.958zm35.61-.43l-10.997-11.133 10.998-11.12v22.254zM25.5 90.714c6.226 0 11.273-5.116 11.273-11.428 0-6.312-5.047-11.43-11.273-11.43s-11.273 5.118-11.273 11.43c0 6.312 5.047 11.428 11.273 11.428zm-9.864-11.428c0-5.522 4.416-10 9.864-10 5.264 0 9.553 4.183 9.836 9.45-1.077.648-5.087 2.695-9.52.446-4.367-2.212-8.31-.833-10.18.12v-.016zm9.55 1.175c1.996 1.013 3.748 1.264 5.202 1.264 1.82 0 3.726-.78 4.92-1.38-.522 5.025-4.713 8.942-9.808 8.942-4.922 0-8.99-3.66-9.732-8.44 1.214-.705 5.115-2.566 9.417-.385zm4.54-19.746c.78 0 1.41-.64 1.41-1.428 0-.79-.63-1.43-1.41-1.43-.777 0-1.408.64-1.408 1.43 0 .79.63 1.428 1.41 1.428zM39.592 55H11.41c-.78 0-1.41.64-1.41 1.43v37.14c0 .79.63 1.43 1.41 1.43h28.18c.78 0 1.41-.64 1.41-1.43V56.43c0-.79-.63-1.43-1.41-1.43zm-28.18 8.57h28.18v30H11.41v-30zm0-7.14h28.18v5.713H11.41V56.43zm23.954 4.284c.777 0 1.41-.64 1.41-1.428 0-.79-.633-1.43-1.41-1.43-.778 0-1.41.64-1.41 1.43 0 .79.632 1.428 1.41 1.428zM9.092 26.228a.696.696 0 0 0 .292.064c.273 0 .534-.16.652-.43.136-.31.377-.685.677-1.055a.74.74 0 0 0-.094-1.026.704.704 0 0 0-1.008.096c-.385.476-.69.955-.88 1.388-.16.367 0 .8.36.964zm13.658 1.524c-.362.332-.72.706-1.055 1.06a.742.742 0 0 0 .018 1.032.702.702 0 0 0 1.01-.017c.317-.336.654-.69.982-.99a.74.74 0 0 0 .054-1.03.703.703 0 0 0-1.01-.055zm-7.423-1.28a.716.716 0 0 0 .9-.47l.025-.094a3.92 3.92 0 0 0 .082-1.706.717.717 0 0 0-.83-.588.73.73 0 0 0-.576.85c.024.133.036.268.036.407 0 .22-.03.435-.098.682a.733.733 0 0 0 .46.92zm-1.536 1.737c-.218.568-.373 1.053-.474 1.484a.73.73 0 0 0 .53.878.717.717 0 0 0 .86-.54c.085-.363.22-.786.414-1.29a.733.733 0 0 0-.404-.946.71.71 0 0 0-.925.413zm-1.41-4.935a.68.68 0 0 0 .26-.05l.065-.024c.354-.12.685-.16.973-.114a.724.724 0 0 0 .812-.613.73.73 0 0 0-.6-.83c-.5-.076-1.064-.02-1.647.177l-.12.045a.734.734 0 0 0-.408.944c.11.288.38.465.666.465zm2.812 8.54a.706.706 0 0 0-.986.225.74.74 0 0 0 .22 1.007c.485.316 1.068.48 1.732.49h.01a.72.72 0 0 0 .715-.717.723.723 0 0 0-.703-.74c-.395-.007-.728-.096-.988-.265zm18.93-14.344l2.295.783-1.106 2.533c-.16.367 0 .8.362.964a.71.71 0 0 0 .943-.37l1.164-2.663 2.056.7c.075.026.152.038.226.038.3 0 .578-.193.678-.5a.732.732 0 0 0-.45-.922l-1.927-.655.736-1.687c.16-.366 0-.8-.362-.962a.706.706 0 0 0-.943.37L37 16.913l-2.426-.827a.71.71 0 0 0-.904.462.732.732 0 0 0 .452.92zm-1.98-6.553h-1.428L19.286 8h-1.43L5 10.917V43l12.857-2.917h1.43L30.713 43h1.43L45 40.083V8l-12.857 2.917zM17.858 38.625H17.7l-.153.035L6.43 41.182V12.087l11.427-2.593v29.13zm12.857-9.35c-.263-.243-.525-.486-.79-.72a.705.705 0 0 0-1.01.074.74.74 0 0 0 .075 1.028c.34.3.674.61 1.053.96.132.122.29.18.45.18a.688.688 0 0 0 .22-.05V41.5l-11.08-2.83-.172-.043h-.174V32.69a8.53 8.53 0 0 0 .675-.38c.205-.13.4-.268.594-.414a.74.74 0 0 0 .143-1.022.706.706 0 0 0-1-.147 6.16 6.16 0 0 1-.41.288V9.505l11.08 2.826.172.045h.174v16.9zm12.857 9.64l-11.427 2.59V32.39c.042.056.083.114.142.158.45.334.872.608 1.294.835a.705.705 0 0 0 .964-.305.738.738 0 0 0-.298-.986 9.21 9.21 0 0 1-1.12-.724.703.703 0 0 0-.983.148v-19.14h.157l.153-.036L43.57 9.818v29.096zM40.268 25.19a.73.73 0 0 0-.54.872c.102.468.182.928.235 1.366a.72.72 0 0 0 .797.635c.39-.05.67-.414.62-.814-.06-.486-.146-.992-.26-1.505a.714.714 0 0 0-.853-.553zm-2.375 7.487c-.088.022-.18.038-.276.052-.26.04-.522.057-.77.057l-.186-.004c-.39-.02-.724.304-.736.706a.722.722 0 0 0 .69.752l.225.005c.32 0 .65-.025.98-.073.138-.02.27-.046.4-.076a.73.73 0 0 0 .53-.878.718.718 0 0 0-.858-.543zm2.88-3.15a.718.718 0 0 0-.83.59c-.08.45-.204.85-.37 1.19-.175.36-.032.798.322.978a.712.712 0 0 0 .958-.328 6 6 0 0 0 .497-1.582.73.73 0 0 0-.576-.85zm-13.347-2.765c-.57-.267-1.13-.405-1.67-.41h-.005a.723.723 0 0 0-.715.725.724.724 0 0 0 .71.736c.34.003.694.093 1.084.276a.713.713 0 0 0 .947-.36.737.737 0 0 0-.352-.968zm12.41-2.966a.736.736 0 0 0 .385-.955 15.958 15.958 0 0 0-.64-1.385.707.707 0 0 0-.966-.3.738.738 0 0 0-.293.988c.206.392.4.814.58 1.256a.714.714 0 0 0 .934.395z"/></g></svg>