<?xml version="1.0" encoding="UTF-8" standalone="no"?>
<svg width="20px" height="60px" viewBox="0 0 20 60" version="1.1" xmlns="http://www.w3.org/2000/svg" xmlns:xlink="http://www.w3.org/1999/xlink" xmlns:sketch="http://www.bohemiancoding.com/sketch/ns">
    <!-- Generator: Sketch 3.5.2 (25235) - http://www.bohemiancoding.com/sketch -->
    <title>contact</title>
    <desc>Created with Sketch.</desc>
    <defs></defs>
    <g id="Contact" stroke="none" stroke-width="1" fill="none" fill-rule="evenodd" sketch:type="MSPage">
        <g id="contact" sketch:type="MSArtboardGroup" fill="#727272">
            <g id="Contact-/-Location" sketch:type="MSLayerGroup" transform="translate(0.000000, 40.000000)">
                <path d="M10.5,2 C7.46255263,2 5,4.43057143 5,7.42857143 C5,12 10.5,18 10.5,18 C10.5,18 16,12 16,7.42857143 C16,4.43057143 13.5374474,2 10.5,2 L10.5,2 Z M5.57894737,7.42857143 C5.57894737,4.746 7.78213158,2.57142857 10.5,2.57142857 C13.2178684,2.57142857 15.4210526,4.746 15.4210526,7.42857143 C15.4210526,11.4285714 10.5,17.1428571 10.5,17.1428571 C10.5,17.1428571 5.57894737,11.4285714 5.57894737,7.42857143 L5.57894737,7.42857143 Z M10.5,4.85714286 C9.06102632,4.85714286 7.89473684,6.00828571 7.89473684,7.42857143 C7.89473684,8.84885714 9.06102632,10 10.5,10 C11.9389737,10 13.1052632,8.84885714 13.1052632,7.42857143 C13.1052632,6.00828571 11.9389737,4.85714286 10.5,4.85714286 L10.5,4.85714286 Z M10.5,9.42857143 C9.38089474,9.42857143 8.47368421,8.53314286 8.47368421,7.42857143 C8.47368421,6.324 9.38089474,5.42857143 10.5,5.42857143 C11.6191053,5.42857143 12.5263158,6.324 12.5263158,7.42857143 C12.5263158,8.53314286 11.6191053,9.42857143 10.5,9.42857143 L10.5,9.42857143 Z" id="Icon" sketch:type="MSShapeGroup"></path>
            </g>
            <g id="Contact-/-Email" sketch:type="MSLayerGroup" transform="translate(0.000000, 20.000000)">
                <path d="M17.4285714,5 L2.57142857,5 C2.256,5 2,5.24888889 2,5.55555556 L2,14.4444444 C2,14.7513889 2.256,15 2.57142857,15 L17.4285714,15 C17.744,15 18,14.7513889 18,14.4444444 L18,5.55555556 C18,5.24888889 17.744,5 17.4285714,5 L17.4285714,5 Z M16.8068571,5.55555556 L10.4048571,11.78 C10.1788571,11.9997222 9.81228571,11.9997222 9.58628571,11.78 L3.184,5.55555556 L16.8068571,5.55555556 L16.8068571,5.55555556 Z M2.57142857,5.72861111 L6.962,9.99722222 L2.57142857,14.2711111 L2.57142857,5.72861111 L2.57142857,5.72861111 Z M3.18371429,14.4444444 L7.35742857,10.3816667 L9.19857143,12.1716667 C9.63885714,12.5994444 10.3522857,12.5994444 10.7922857,12.1716667 L12.6337143,10.3816667 L16.8071429,14.4444444 L3.18371429,14.4444444 L3.18371429,14.4444444 Z M17.4285714,14.2794444 L13.0291429,9.99722222 L17.4285714,5.72 L17.4285714,14.2794444 L17.4285714,14.2794444 Z" id="Icon" sketch:type="MSShapeGroup"></path>
            </g>
            <g id="Contact-/-Phone" sketch:type="MSLayerGroup">
                <path d="M17.9819441,15.0782172 C17.8552886,14.2429324 17.0767721,13.333089 15.7313079,12.4472415 C13.8000265,11.1763174 13.2582385,11.5134023 12.5329001,12.1672897 C12.4742898,12.2204234 12.4133922,12.2752711 12.3487779,12.3309758 L12.3270492,12.3518294 C12.2455666,12.4381002 11.9599485,12.6854862 11.717216,12.6929135 C11.6268703,12.6951988 11.5525353,12.6640613 11.4782003,12.5943591 C10.9112527,12.0607366 9.45628731,10.6624059 9.3985347,10.6072725 L9.40139374,10.6041302 C9.40139374,10.6041302 8.03734584,9.12981256 7.47840355,8.57048027 C7.38405524,8.47592511 7.37805125,8.40308051 7.38205391,8.3565171 C7.39835044,8.1599795 7.64422786,7.94030303 7.72799773,7.87974202 L7.75401499,7.85888847 C7.82720641,7.7923285 7.90125554,7.7309105 7.97244563,7.67120649 C8.73866831,7.03103097 9.10948578,6.49626588 7.80118915,4.47032889 C6.73076464,2.81318557 6.06975463,2.14987118 5.36099865,2.02160754 C4.92099242,1.94276397 4.48813379,2.07788357 3.96578721,2.45667551 C3.0603293,3.08142511 2.16402031,3.79130292 2.0199247,4.97938413 C1.80949937,6.71537102 3.25760305,9.19922918 6.75449467,13.0731338 L6.78222735,13.101129 C10.1164396,16.4359835 12.5935117,18 14.5510963,18 C14.6157106,18 14.6803249,17.998286 14.7443674,17.9945724 C16.145011,17.9194424 17.0396046,17.0141697 17.6580149,16.2394459 C17.9350558,15.909217 18.0471302,15.5075719 17.9819441,15.0782172 L17.9819441,15.0782172 Z M17.2102892,15.8960764 C16.3845985,16.9301841 15.6378173,17.3929616 14.7123461,17.442953 C12.9251603,17.5375082 10.4701028,15.9937739 7.19678813,12.720623 C3.86486311,9.02897277 2.3998911,6.58939271 2.58715821,5.04365878 C2.69294268,4.17038052 3.29448466,3.5990503 4.30315391,2.90288442 C4.69198333,2.62064728 4.98617853,2.51723651 5.25635779,2.56551392 C5.76469508,2.65721242 6.38110406,3.31452784 7.3165819,4.76313563 C8.45991193,6.53368801 8.13626862,6.80449854 7.59905503,7.2527071 C7.52614952,7.3141251 7.45038496,7.37697142 7.37462041,7.44524539 C7.27741305,7.51780432 6.85198792,7.85803147 6.81281908,8.30938235 C6.7925199,8.54419908 6.88057832,8.7675892 7.06784543,8.95498551 C7.6179247,9.50546218 8.98683297,10.9923491 8.99398057,10.9994907 L8.99054972,11.0029187 C8.99054972,11.0029187 10.5004087,12.4452419 11.079936,12.9905766 C11.2652018,13.1648323 11.4899223,13.2505318 11.7375152,13.2453899 C12.2367035,13.2291069 12.6538375,12.8234625 12.7393227,12.734335 C12.8033652,12.6792016 12.8639769,12.6246396 12.9225872,12.5715058 C13.4795282,12.0695922 13.7585704,11.8170643 15.4102378,12.9045914 C16.6027433,13.6895991 17.3155019,14.4900328 17.4167119,15.1587748 C17.4587398,15.4344416 17.3906946,15.6809706 17.2102892,15.8960764 L17.2102892,15.8960764 Z" id="Icon" sketch:type="MSShapeGroup"></path>
            </g>
        </g>
    </g>
</svg>