<?xml version="1.0" encoding="UTF-8" standalone="no"?>
<svg width="500px" height="500px" viewBox="0 0 500 500" version="1.1" xmlns="http://www.w3.org/2000/svg" xmlns:xlink="http://www.w3.org/1999/xlink" xmlns:sketch="http://www.bohemiancoding.com/sketch/ns">
    <!-- Generator: Sketch 3.5.2 (25235) - http://www.bohemiancoding.com/sketch -->
    <title>capnet_logo</title>
    <desc>Created with Sketch.</desc>
    <defs></defs>
    <g id="Page-1" stroke="none" stroke-width="1" fill="none" fill-rule="evenodd" sketch:type="MSPage">
        <g id="capnet_logo" sketch:type="MSArtboardGroup">
            <rect id="Guide" sketch:type="MSShapeGroup" x="0" y="0" width="500" height="500"></rect>
            <g id="Cap" sketch:type="MSLayerGroup" transform="translate(6.000000, 113.000000)" fill="#F88223">
                <path d="M285.221508,40.866541 L294.148577,11.0071595 C294.239294,10.5580035 294.37014,10.1234 294.537213,9.70724384 L294.559054,9.63418968 L294.565743,9.63721079 C295.690719,6.91528869 298.371689,5 301.5,5 C305.642136,5 309,8.35786438 309,12.5 C309,13.6881079 308.723735,14.8116905 308.231939,15.8100136 L308.254334,15.8201292 L308.112327,16.0424735 C307.932732,16.3770012 307.728492,16.6963261 307.502036,16.9980199 L290.707622,43.2934302 C290.601695,43.5147756 290.469425,43.721108 290.314872,43.908368 L290.300476,43.9309083 L290.297526,43.929194 C289.747209,44.5838951 288.922198,45 288,45 C286.343146,45 285,43.6568542 285,42 C285,41.598931 285.078703,41.216244 285.221508,40.866541 Z" id="'" sketch:type="MSShapeGroup"></path>
                <path d="M270,102.138098 C262.787524,111.775084 251.361629,118 238.5,118 C216.684752,118 199,100.09139 199,78 C199,55.90861 216.684752,38 238.5,38 C260.315248,38 278,55.90861 278,78 L278,132 L270,132 L270,102.138098 Z M238.5,114 C255.89697,114 270,97.6583934 270,77.5 C270,57.3416066 255.89697,41 238.5,41 C221.10303,41 207,57.3416066 207,77.5 C207,97.6583934 221.10303,114 238.5,114 Z" id="P" sketch:type="MSShapeGroup" transform="translate(238.500000, 85.000000) scale(-1, 1) translate(-238.500000, -85.000000) "></path>
                <path d="M186,102.138098 C178.787524,111.775084 167.361629,118 154.5,118 C132.684752,118 115,100.09139 115,78 C115,55.90861 132.684752,38 154.5,38 C176.315248,38 194,55.90861 194,78 L194,132 L186,132 L186,102.138098 Z M154.5,114 C171.89697,114 186,97.6583934 186,77.5 C186,57.3416066 171.89697,41 154.5,41 C137.10303,41 123,57.3416066 123,77.5 C123,97.6583934 137.10303,114 154.5,114 Z" id="A" sketch:type="MSShapeGroup"></path>
                <g id="C" sketch:type="MSShapeGroup">
                    <path d="M58,117 C25.9674845,117 0,90.8086579 0,58.5 C0,26.1913421 25.9674845,0 58,0 C77.6967349,0 95.100283,9.90293987 105.583467,25.0417522 C105.583467,25.0417522 107.41185,27.5796642 104.602524,29.2872467 C101.793198,30.9948292 100.0232,28.4140762 100.0232,28.4140762 C91.1189754,13.1217728 75.6243826,3 58,3 C30.3857625,3 8,27.8481964 8,58.5 C8,89.1518036 30.3857625,114 58,114 C75.9240156,114 91.6452085,103.53114 100.471607,87.8015092 C100.471607,87.8015092 101.65387,85.4969482 104.994446,87.7344971 C107.310425,89.2857612 105.522127,92.0466554 105.522127,92.0466554 C95.0324731,107.135603 77.6583673,117 58,117 Z"></path>
                </g>
            </g>
            <g id="Net" sketch:type="MSLayerGroup" transform="translate(178.000000, 208.000000)" fill="#FFFFFF">
                <path d="M217,8 L217,42 L242,42 L242,122 L276,122 L276,42 L302,42 L302,8.00040273 L217,8 Z" id="T" sketch:type="MSShapeGroup"></path>
                <path d="M126,8 L126,122 L194,122 L194,88 L160,88 L160,81 L208,81 L208,49 L160,49 L160,42 L194,42 L194,8 L126,8 Z" id="E" sketch:type="MSShapeGroup"></path>
                <path d="M0,122 L0,8.52651283e-14 L81.9999974,65 L82,8 L116,8 L116.002718,136 L35,71 L35,122 L0,122 Z" id="N" sketch:type="MSShapeGroup"></path>
            </g>
        </g>
    </g>
</svg>