<?xml version="1.0" encoding="UTF-8" standalone="no"?>
<svg width="50px" height="200px" viewBox="0 0 50 200" version="1.1" xmlns="http://www.w3.org/2000/svg" xmlns:xlink="http://www.w3.org/1999/xlink" xmlns:sketch="http://www.bohemiancoding.com/sketch/ns">
    <!-- Generator: Sketch 3.5.2 (25235) - http://www.bohemiancoding.com/sketch -->
    <title>navigation</title>
    <desc>Created with Sketch.</desc>
    <defs></defs>
    <g id="Index" stroke="none" stroke-width="1" fill="none" fill-rule="evenodd" sketch:type="MSPage">
        <g id="navigation" sketch:type="MSArtboardGroup" fill="#FFFFFF">
            <g id="Navigation-/-About-us" sketch:type="MSLayerGroup" transform="translate(0.000000, 150.000000)">
                <path d="M24.8435714,20.1221429 C25.4228571,20.1221429 25.9242857,19.9078571 26.3478571,19.4807143 C26.7707143,19.0528571 26.9828571,18.5342857 26.9828571,17.9271429 C26.9828571,17.3192857 26.7728571,16.8 26.3528571,16.3678571 C25.9335714,15.9364286 25.43,15.7207143 24.8435714,15.7207143 C24.2571429,15.7207143 23.7521429,15.9364286 23.3285714,16.3678571 C22.905,16.8 22.6935714,17.3192857 22.6935714,17.9271429 C22.6935714,18.5342857 22.905,19.0528571 23.3285714,19.4807143 C23.7521429,19.9078571 24.2571429,20.1221429 24.8435714,20.1221429 L24.8435714,20.1221429 Z M25,5 C13.9542857,5 5,13.9542857 5,25 C5,36.0457143 13.9542857,45 25,45 C36.0457143,45 45,36.0457143 45,25 C45,13.9542857 36.0457143,5 25,5 L25,5 Z M25,43.5714286 C14.7435714,43.5714286 6.42857143,35.2564286 6.42857143,25 C6.42857143,14.7435714 14.7435714,6.42857143 25,6.42857143 C35.2564286,6.42857143 43.5714286,14.7435714 43.5714286,25 C43.5714286,35.2564286 35.2564286,43.5714286 25,43.5714286 L25,43.5714286 Z M27.5471429,33.0985714 C27.345,33.0021429 27.1892857,32.8564286 27.0807143,32.6607143 C26.9721429,32.465 26.9178571,32.2271429 26.9178571,31.9471429 L26.9178571,22.425 L26.755,22.245 L21.4335714,22.5564286 L21.4335714,23.4321429 C21.6507143,23.4557143 21.8914286,23.5121429 22.1564286,23.6 C22.42,23.6878571 22.6178571,23.78 22.7478571,23.8757143 C22.9214286,24.0042857 23.0664286,24.1735714 23.1821429,24.3857143 C23.2978571,24.5978571 23.3557143,24.8428571 23.3557143,25.1228571 L23.3557143,32.1028571 C23.3557143,32.3985714 23.3085714,32.6364286 23.215,32.8164286 C23.1207143,32.9964286 22.9578571,33.135 22.7257143,33.2307143 C22.5957143,33.2871429 22.44,33.3264286 22.2592857,33.35 C22.0785714,33.3742857 21.8935714,33.3942857 21.7057143,33.41 L21.7057143,34.2857143 L28.5685714,34.2857143 L28.5685714,33.41 C28.38,33.3864286 28.1992857,33.3471429 28.025,33.2907143 C27.8514286,33.2342857 27.6921429,33.1707143 27.5471429,33.0985714 L27.5471429,33.0985714 Z" id="Icon" sketch:type="MSShapeGroup"></path>
            </g>
            <g id="Navigation-/-Contact" sketch:type="MSLayerGroup" transform="translate(0.000000, 100.000000)">
                <path d="M43.5714286,12 L6.42857143,12 C5.64,12 5,12.6471111 5,13.4444444 L5,36.5555556 C5,37.3536111 5.64,38 6.42857143,38 L43.5714286,38 C44.36,38 45,37.3536111 45,36.5555556 L45,13.4444444 C45,12.6471111 44.36,12 43.5714286,12 L43.5714286,12 Z M42.0171429,13.4444444 L26.0121429,29.628 C25.4471429,30.1992778 24.5307143,30.1992778 23.9657143,29.628 L7.96,13.4444444 L42.0171429,13.4444444 L42.0171429,13.4444444 Z M6.42857143,13.8943889 L17.405,24.9927778 L6.42857143,36.1048889 L6.42857143,13.8943889 L6.42857143,13.8943889 Z M7.95928571,36.5555556 L18.3935714,25.9923333 L22.9964286,30.6463333 C24.0971429,31.7585556 25.8807143,31.7585556 26.9807143,30.6463333 L31.5842857,25.9923333 L42.0178571,36.5555556 L7.95928571,36.5555556 L7.95928571,36.5555556 Z M43.5714286,36.1265556 L32.5728571,24.9927778 L43.5714286,13.872 L43.5714286,36.1265556 L43.5714286,36.1265556 Z" id="Icon" sketch:type="MSShapeGroup"></path>
            </g>
            <g id="Navigation-/-Services" sketch:type="MSLayerGroup" transform="translate(0.000000, 50.000000)">
                <path d="M25.5,40.7142857 C31.7260682,40.7142857 36.7727273,35.5978571 36.7727273,29.2857143 C36.7727273,22.9742857 31.7260682,17.8571429 25.5,17.8571429 C19.2739318,17.8571429 14.2272727,22.9742857 14.2272727,29.2857143 C14.2272727,35.5978571 19.2739318,40.7142857 25.5,40.7142857 L25.5,40.7142857 Z M15.6363636,29.2857143 C15.6363636,23.7635714 20.0524545,19.2857143 25.5,19.2857143 C30.7643636,19.2857143 35.0529318,23.4692857 35.3361591,28.735 C34.2589091,29.3842857 30.2493409,31.4307143 25.8149318,29.1821429 C21.4488636,26.97 17.5069318,28.3485714 15.6370682,29.3007143 C15.6370682,29.2957143 15.6363636,29.2907143 15.6363636,29.2857143 L15.6363636,29.2857143 Z M25.1850682,30.4607143 C27.1824545,31.4728571 28.9339545,31.7235714 30.3881364,31.7235714 C32.2065682,31.7235714 34.1144773,30.9442857 35.3072727,30.3442857 C34.7859091,35.3692857 30.5945682,39.2857143 25.5,39.2857143 C20.5780455,39.2857143 16.5092955,35.6264286 15.7681136,30.8471429 C16.9820455,30.1414286 20.8831136,28.28 25.1850682,30.4607143 L25.1850682,30.4607143 Z M29.7272727,10.7142857 C30.5050909,10.7142857 31.1363636,10.075 31.1363636,9.28571429 C31.1363636,8.49714286 30.5050909,7.85714286 29.7272727,7.85714286 C28.94875,7.85714286 28.3181818,8.49714286 28.3181818,9.28571429 C28.3181818,10.075 28.94875,10.7142857 29.7272727,10.7142857 L29.7272727,10.7142857 Z M39.5909091,5 L11.4090909,5 C10.6312727,5 10,5.64 10,6.42857143 L10,43.5714286 C10,44.3607143 10.6312727,45 11.4090909,45 L39.5909091,45 C40.3687273,45 41,44.3607143 41,43.5714286 L41,6.42857143 C41,5.64 40.3687273,5 39.5909091,5 L39.5909091,5 Z M11.4090909,13.5714286 L39.5909091,13.5714286 L39.5909091,43.5714286 L11.4090909,43.5714286 L11.4090909,13.5714286 Z M11.4090909,6.42857143 L39.5909091,6.42857143 L39.5909091,12.1428571 L11.4090909,12.1428571 L11.4090909,6.42857143 Z M35.3636364,10.7142857 C36.1414545,10.7142857 36.7727273,10.075 36.7727273,9.28571429 C36.7727273,8.49714286 36.1414545,7.85714286 35.3636364,7.85714286 C34.5858182,7.85714286 33.9545455,8.49714286 33.9545455,9.28571429 C33.9545455,10.075 34.5858182,10.7142857 35.3636364,10.7142857 L35.3636364,10.7142857 Z" id="Icon" sketch:type="MSShapeGroup"></path>
            </g>
            <g id="Navigation-/-Locate-us" sketch:type="MSLayerGroup">
                <path d="M9.09214286,26.2277083 C9.18714286,26.2714583 9.28642857,26.291875 9.38428571,26.291875 C9.65714286,26.291875 9.91785714,26.1314583 10.0364286,25.8609375 C10.1721429,25.5510417 10.4128571,25.1769792 10.7128571,24.8072917 C10.9642857,24.4973958 10.9221429,24.0365625 10.6185714,23.780625 C10.3157143,23.5232292 9.86428571,23.5655208 9.61214286,23.8761458 C9.22714286,24.3515625 8.92285714,24.8313542 8.73285714,25.26375 C8.57142857,25.63125 8.73285714,26.0629167 9.09214286,26.2277083 L9.09214286,26.2277083 Z M22.75,27.7523958 C22.3878571,28.0841667 22.0307143,28.4575 21.695,28.8111458 C21.4214286,29.1013542 21.4285714,29.5629167 21.7128571,29.8436458 C21.8514286,29.9807292 22.03,30.0485417 22.2092857,30.0485417 C22.3957143,30.0485417 22.5828571,29.9748958 22.7228571,29.826875 C23.04,29.4907292 23.3771429,29.1378125 23.705,28.838125 C23.9978571,28.5683333 24.0221429,28.1067708 23.7585714,27.8078125 C23.495,27.5073958 23.0442857,27.4833333 22.75,27.7523958 L22.75,27.7523958 Z M15.3271429,26.4705208 C15.4,26.4938542 15.4735714,26.5055208 15.5464286,26.5055208 C15.8478571,26.5055208 16.1285714,26.3086458 16.2257143,26.0002083 L16.2521429,25.9083333 C16.345,25.57 16.3921429,25.2207292 16.3921429,24.8721875 C16.3921429,24.6476042 16.3728571,24.4222917 16.3335714,24.2020833 C16.2628571,23.8061458 15.8935714,23.5451042 15.5035714,23.614375 C15.115,23.6872917 14.8578571,24.0664583 14.9278571,24.463125 C14.9521429,24.5965625 14.9635714,24.7321875 14.9635714,24.8707292 C14.9635714,25.08875 14.9342857,25.3045833 14.8664286,25.5517708 C14.7457143,25.9360417 14.9514286,26.3472917 15.3271429,26.4705208 L15.3271429,26.4705208 Z M13.7907143,28.2088542 C13.5721429,28.7776042 13.4171429,29.2632292 13.3164286,29.6941667 C13.2257143,30.0857292 13.4628571,30.4794792 13.8464286,30.5720833 C13.9021429,30.5859375 13.9578571,30.5917708 14.0121429,30.5917708 C14.3357143,30.5917708 14.6285714,30.3664583 14.7064286,30.0317708 C14.7914286,29.6686458 14.9264286,29.2464583 15.12,28.7411458 C15.265,28.3670833 15.0835714,27.9434375 14.7164286,27.7961458 C14.3485714,27.6503125 13.9335714,27.8333333 13.7907143,28.2088542 L13.7907143,28.2088542 Z M12.3807143,23.2745833 C12.4671429,23.2745833 12.5542857,23.26 12.6385714,23.2257292 L12.705,23.2009375 C13.0592857,23.0798958 13.39,23.04125 13.6778571,23.0857292 C14.0628571,23.1396875 14.4314286,22.870625 14.49,22.4725 C14.5478571,22.0736458 14.2785714,21.7025 13.8885714,21.6427083 C13.3885714,21.566875 12.8257143,21.6215625 12.2428571,21.8198958 L12.1235714,21.8651042 C11.755,22.0102083 11.5728571,22.4323958 11.715,22.809375 C11.8242857,23.098125 12.095,23.2745833 12.3807143,23.2745833 L12.3807143,23.2745833 Z M15.1921429,31.8145833 C14.8585714,31.59875 14.4171429,31.699375 14.2057143,32.0398958 C13.9942857,32.3796875 14.0921429,32.8303125 14.425,33.046875 C14.9114286,33.3626042 15.4942857,33.528125 16.1578571,33.5383333 L16.1692857,33.5383333 C16.5585714,33.5383333 16.8764286,33.2196875 16.8828571,32.8201042 C16.8892857,32.4176042 16.5742857,32.0858333 16.18,32.0792708 C15.785,32.0734375 15.4521429,31.9844792 15.1921429,31.8145833 L15.1921429,31.8145833 Z M34.1221429,17.4711458 L36.4171429,18.2528125 L35.3107143,20.7859375 C35.15,21.1534375 35.3114286,21.5858333 35.6721429,21.7498958 C35.7664286,21.7929167 35.865,21.8126042 35.9628571,21.8126042 C36.2364286,21.8126042 36.4971429,21.6521875 36.615,21.3802083 L37.7785714,18.7165625 L39.8364286,19.4172917 C39.9114286,19.4428125 39.9878571,19.4552083 40.0621429,19.4552083 C40.3614286,19.4552083 40.64,19.2619792 40.74,18.9557292 C40.865,18.5736458 40.6628571,18.1609375 40.2885714,18.0333333 L38.3628571,17.3778125 L39.0992857,15.69125 C39.26,15.32375 39.0985714,14.8913542 38.7378571,14.7280208 C38.3771429,14.5625 37.955,14.72875 37.795,15.0969792 L37.0014286,16.9140625 L34.5735714,16.0871875 C34.1985714,15.958125 33.7942857,16.1659375 33.67,16.54875 C33.545,16.9308333 33.7478571,17.3442708 34.1221429,17.4711458 L34.1221429,17.4711458 Z M32.1428571,10.9166667 L30.7142857,10.9166667 L19.2857143,8 L17.8571429,8 L5,10.9166667 L5,43 L17.8571429,40.0833333 L19.2857143,40.0833333 L30.7142857,43 L32.1428571,43 L45,40.0833333 L45,8 L32.1428571,10.9166667 L32.1428571,10.9166667 Z M17.8571429,38.625 L17.7,38.625 L17.5471429,38.66 L6.42857143,41.1821875 L6.42857143,12.0869792 L17.8571429,9.4940625 L17.8571429,38.625 L17.8571429,38.625 Z M30.7142857,29.2741667 C30.4507143,29.0320833 30.1885714,28.7885417 29.9228571,28.55375 C29.6228571,28.2905208 29.1728571,28.3240625 28.915,28.6288542 C28.6571429,28.934375 28.69,29.3944792 28.9885714,29.6577083 C29.3285714,29.9573958 29.6642857,30.2680208 30.0428571,30.61875 C30.175,30.7397917 30.3342857,30.7988542 30.4942857,30.7988542 C30.5692857,30.7988542 30.6421429,30.7740625 30.7142857,30.7492708 L30.7142857,41.4971875 L19.6321429,38.66875 L19.4614286,38.625 L19.2857143,38.625 L19.2857143,32.6910417 C19.5307143,32.565625 19.7621429,32.4365625 19.9607143,32.3104167 C20.165,32.180625 20.3614286,32.0420833 20.5535714,31.8955208 C20.8692857,31.6534375 20.9335714,31.1969792 20.6971429,30.8739583 C20.4607143,30.5516667 20.0128571,30.4867708 19.6971429,30.7266667 C19.5642857,30.8294792 19.4257143,30.9235417 19.2857143,31.0146875 L19.2857143,9.50354167 L30.3678571,12.33125 L30.5385714,12.375 L30.7142857,12.375 L30.7142857,29.2741667 L30.7142857,29.2741667 Z M43.5714286,38.91375 L32.1428571,41.5059375 L32.1428571,32.3891667 C32.185,32.4460417 32.2257143,32.5036458 32.285,32.548125 C32.7342857,32.8820833 33.1571429,33.1555208 33.5785714,33.3830208 C33.685,33.4398958 33.7992857,33.466875 33.9114286,33.466875 C34.1678571,33.466875 34.4157143,33.3254167 34.5435714,33.0782292 C34.7278571,32.7209375 34.5942857,32.2797917 34.2457143,32.0916667 C33.8857143,31.8969792 33.5192857,31.6607292 33.1264286,31.3683333 C32.8128571,31.1364583 32.3778571,31.2035417 32.1428571,31.515625 L32.1428571,12.375 L32.3,12.375 L32.4528571,12.34 L43.5714286,9.8178125 L43.5714286,38.91375 L43.5714286,38.91375 Z M40.2671429,25.1922917 C39.8821429,25.2805208 39.6407143,25.670625 39.7271429,26.0636458 C39.8292857,26.5317708 39.9085714,26.991875 39.9621429,27.4301042 C40.0071429,27.7997917 40.315,28.0703125 40.67,28.0703125 C40.6992857,28.0703125 40.7292857,28.0688542 40.7592857,28.0652083 C41.1507143,28.0148958 41.4285714,27.6510417 41.38,27.2507292 C41.3207143,26.764375 41.2335714,26.2576042 41.1207143,25.745 C41.0342857,25.3505208 40.6514286,25.1033333 40.2671429,25.1922917 L40.2671429,25.1922917 Z M37.8921429,32.679375 C37.8035714,32.7019792 37.7114286,32.7180208 37.6164286,32.731875 C37.3557143,32.7705208 37.0942857,32.7894792 36.8457143,32.7894792 L36.66,32.7858333 C36.2692857,32.7654167 35.9357143,33.0898958 35.9235714,33.4923958 C35.9107143,33.895625 36.2207143,34.2325 36.615,34.2441667 L36.8385714,34.2492708 C37.1614286,34.2492708 37.4914286,34.2252083 37.8185714,34.1770833 C37.9578571,34.1566667 38.0914286,34.1311458 38.2207143,34.1005208 C38.605,34.0071875 38.8421429,33.6141667 38.7514286,33.221875 C38.6607143,32.8295833 38.275,32.5911458 37.8921429,32.679375 L37.8921429,32.679375 Z M40.7721429,29.529375 C40.3842857,29.4601042 40.0121429,29.7211458 39.9421429,30.1185417 C39.8621429,30.5691667 39.7378571,30.9702083 39.5728571,31.3085417 C39.3971429,31.6694792 39.54,32.1077083 39.8935714,32.2878125 C39.9957143,32.3395833 40.1042857,32.3636458 40.2114286,32.3636458 C40.4742857,32.3636458 40.7264286,32.215625 40.8514286,31.9596875 C41.0771429,31.4973958 41.2435714,30.9651042 41.3478571,30.378125 C41.4178571,29.9814583 41.16,29.6015625 40.7721429,29.529375 L40.7721429,29.529375 Z M27.425,26.7651042 C26.8557143,26.4982292 26.2942857,26.3604167 25.7557143,26.3560417 L25.75,26.3560417 C25.3578571,26.3560417 25.0385714,26.6790625 25.035,27.0801042 C25.0321429,27.4826042 25.3492857,27.8121875 25.7442857,27.8158333 C26.0842857,27.81875 26.4385714,27.9091667 26.8285714,28.0921875 C26.925,28.1366667 27.0264286,28.1585417 27.1264286,28.1585417 C27.3964286,28.1585417 27.6557143,28.0010417 27.7757143,27.7334375 C27.9407143,27.3673958 27.7835714,26.9342708 27.425,26.7651042 L27.425,26.7651042 Z M39.8335714,23.7988542 C40.1978571,23.645 40.3707143,23.2177083 40.22,22.8451042 C40.0228571,22.3594792 39.8078571,21.8935417 39.5814286,21.4604167 C39.395,21.1045833 38.9628571,20.9711458 38.6142857,21.1607292 C38.2664286,21.3517708 38.1357143,21.7929167 38.3214286,22.1480208 C38.5257143,22.5395833 38.7207143,22.9625 38.9,23.4036458 C39.0142857,23.6851042 39.28,23.8542708 39.56,23.8542708 C39.6514286,23.8542708 39.7442857,23.8367708 39.8335714,23.7988542 L39.8335714,23.7988542 Z" id="Icon" sketch:type="MSShapeGroup"></path>
            </g>
        </g>
    </g>
</svg>