<svg width="20" height="60" viewBox="0 0 20 60" xmlns="http://www.w3.org/2000/svg"><title>contact</title><g fill="#727272" fill-rule="evenodd"><path d="M10.5 42C7.463 42 5 44.43 5 47.43 5 52 10.5 58 10.5 58S16 52 16 47.43c0-3-2.463-5.43-5.5-5.43zm-4.92 5.43c0-2.684 2.202-4.86 4.92-4.86s4.92 2.176 4.92 4.86c0 4-4.92 9.713-4.92 9.713S5.58 51.43 5.58 47.43zm4.92-2.573c-1.44 0-2.605 1.15-2.605 2.572C7.895 48.85 9.06 50 10.5 50c1.44 0 2.605-1.15 2.605-2.57 0-1.422-1.166-2.573-2.605-2.573zm0 4.572c-1.12 0-2.026-.897-2.026-2 0-1.106.907-2 2.026-2 1.12 0 2.026.894 2.026 2 0 1.103-.907 2-2.026 2zM17.43 25H2.57c-.314 0-.57.25-.57.556v8.888c0 .307.256.556.57.556h14.86c.314 0 .57-.25.57-.556v-8.888a.564.564 0 0 0-.57-.556zm-.623.556l-6.402 6.224a.59.59 0 0 1-.82 0l-6.4-6.224h13.622zM2.57 25.73l4.392 4.267-4.39 4.274v-8.54zm.614 8.714l4.173-4.062 1.842 1.79a1.15 1.15 0 0 0 1.592 0l1.842-1.79 4.173 4.062H3.184zm14.245-.165l-4.4-4.283 4.4-4.277v8.56zM17.982 15.078c-.127-.835-.905-1.745-2.25-2.63-1.932-1.272-2.474-.935-3.2-.28l-.183.163-.023.022c-.08.086-.367.333-.61.34a.32.32 0 0 1-.24-.098c-.566-.533-2.02-1.932-2.078-1.987v-.003S8.038 9.13 7.48 8.57c-.094-.094-.1-.167-.096-.213.016-.197.262-.417.346-.477l.026-.02c.073-.068.147-.13.218-.19.767-.64 1.137-1.174-.17-3.2C6.73 2.813 6.07 2.15 5.36 2.022c-.44-.08-.874.056-1.396.435C3.06 3.08 2.164 3.79 2.02 4.98c-.21 1.735 1.238 4.22 4.734 8.093l.028.028c3.334 3.336 5.812 4.9 7.77 4.9.064 0 .128-.002.192-.005 1.4-.076 2.296-.98 2.914-1.756.277-.33.39-.732.324-1.162zm-.772.818c-.825 1.034-1.572 1.497-2.498 1.547-1.787.095-4.242-1.45-7.515-4.722C3.865 9.03 2.4 6.59 2.587 5.045c.106-.874.707-1.445 1.716-2.14.39-.283.683-.387.953-.338.51.09 1.125.75 2.06 2.197 1.144 1.77.82 2.04.283 2.49-.074.06-.15.124-.225.192-.098.073-.523.413-.562.864a.802.802 0 0 0 .255.645c.55.55 1.92 2.037 1.926 2.044l-.003.003s1.51 1.442 2.09 1.988a.91.91 0 0 0 .658.255c.5-.016.916-.422 1-.51l.185-.163c.557-.502.836-.755 2.487.333 1.193.785 1.906 1.585 2.007 2.254a.89.89 0 0 1-.207.736z"/></g></svg>